# xmcd CD database file generated by Grip 3.2.0
# 
# Track frame offsets:
#       150
#       10762
#       20400
#       27277
#       47787
#       59985
#       71750
#       82090
#       92635
#       100282
#       114400
#       123270
#       135100
#       159950
#       166322
#       179907
#       185512
#       192642
#       200332
#       210875
#       220325
#       224975
#       232345
#       246120
#       253707
#       263990
# 
# Disc length: 3680 seconds
# 
# Revision: 3
# Processed by: cddbd v1.5.1PL2 Copyright (c) Steve Scherf et al.
# Submitted via: Grip 3.2.0
# 
DISCID=8b0e5e1a
DTITLE=The Doc Watson Family - The Doc Watson Family
DYEAR=1900
DGENRE=Bluegrass
TTITLE0=Ground Hog
TTITLE1=Every Day Dirt
TTITLE2=Bonaparte's Retreat
TTITLE3=The House Carpenter
TTITLE4=I'm Troubled
TTITLE5=Your Long Journey
TTITLE6=When I Die
TTITLE7=The Train That Carried My Girl From Town
TTITLE8=Down the Road
TTITLE9=The Lone Pilgrim
TTITLE10=Texas Gales - Blackberry Rag
TTITLE11=Darling Corey
TTITLE12=The Triplett Tragedy
TTITLE13=Muddy Roads
TTITLE14=The Lost Soul
TTITLE15=Keep in the Middle of the Road
TTITLE16=The Old Man Below
TTITLE17=Pretty Saro
TTITLE18=Cousin Sally Brown
TTITLE19=Look Down That Lonesome Road
TTITLE20=Doodle Bug
TTITLE21=Rambling Hobo
TTITLE22=The Cuckoo Bird
TTITLE23=Frosty Morn
TTITLE24=Shady Grove
TTITLE25=Southbound
EXTD=
EXTT0=
EXTT1=
EXTT2=
EXTT3=
EXTT4=
EXTT5=
EXTT6=
EXTT7=
EXTT8=
EXTT9=
EXTT10=
EXTT11=
EXTT12=
EXTT13=
EXTT14=
EXTT15=
EXTT16=
EXTT17=
EXTT18=
EXTT19=
EXTT20=
EXTT21=
EXTT22=
EXTT23=
EXTT24=
EXTT25=
PLAYORDER=
